<?xml version="1.0" encoding="UTF-8"?>
<svg id="Capa_1" data-name="Capa 1" xmlns="http://www.w3.org/2000/svg" xmlns:xlink="http://www.w3.org/1999/xlink" viewBox="0 0 200 165.18">
  <defs>
    <style>
      .cls-1, .cls-2 {
        fill: none;
      }

      .cls-3 {
        font-size: 30.18px;
        letter-spacing: .03em;
      }

      .cls-3, .cls-4, .cls-5, .cls-6 {
        isolation: isolate;
      }

      .cls-3, .cls-7, .cls-6 {
        fill: #fff;
      }

      .cls-3, .cls-5, .cls-6 {
        font-family: Times-Bold, Times;
        font-weight: 700;
      }

      .cls-8 {
        fill: #008bd0;
      }

      .cls-9 {
        clip-path: url(#clippath-1);
      }

      .cls-10 {
        clip-path: url(#clippath-2);
      }

      .cls-11 {
        fill: #367925;
      }

      .cls-5 {
        fill: #161615;
        font-size: 5.03px;
        letter-spacing: .03em;
      }

      .cls-12 {
        fill: #c89b40;
      }

      .cls-13 {
        fill: #dedede;
        stroke: #aba9aa;
      }

      .cls-13, .cls-2 {
        stroke-miterlimit: 10;
      }

      .cls-2 {
        stroke: #040405;
        stroke-width: 3px;
      }

      .cls-6 {
        font-size: 33.2px;
        letter-spacing: .03em;
      }

      .cls-14 {
        fill: #c30013;
      }

      .cls-15 {
        clip-path: url(#clippath);
      }

      .cls-16 {
        fill: #008dd1;
      }
    </style>
    <clipPath id="clippath">
      <path class="cls-1" d="M99.87,109.77c0-5.75,15.42-8.89,20.12-8.89s7.32-3.66,7.32-7.84v-39.21c.08-2.85,1.68-5.44,4.18-6.8h-62.99c2.51,1.36,4.1,3.95,4.18,6.8v39.21c0,4.18,2.62,7.84,7.32,7.84s19.86,3.14,19.86,8.89Z"/>
    </clipPath>
    <clipPath id="clippath-1">
      <rect class="cls-1" x="71.38" y="76.58" width="28.23" height="32.93"/>
    </clipPath>
    <clipPath id="clippath-2">
      <rect class="cls-1" x="99.61" y="46.26" width="28.39" height="30.32"/>
    </clipPath>
  </defs>
  <path class="cls-7" d="M100.13,165.18h-.26c-28.95-.06-53.31-10.6-68.67-19.45-9.63-5.44-18.61-11.97-26.75-19.46l-.22-.22L0,0h200l-4.22,126.06-.22.22c-8.14,7.49-17.12,14.02-26.75,19.46-15.36,8.84-39.72,19.38-68.67,19.45h0Z"/>
  <path id="Trazado_5" data-name="Trazado 5" class="cls-16" d="M100.13,165.18h-.26c-28.95-.06-53.31-10.6-68.67-19.45-9.63-5.44-18.61-11.97-26.75-19.46l-.22-.22L0,0h200l-4.22,126.06-.22.22c-8.14,7.49-17.12,14.02-26.75,19.46-15.36,8.84-39.72,19.38-68.67,19.45h0ZM5.77,125.37c8.02,7.3,16.82,13.69,26.26,19.03,15.21,8.75,39.34,19.18,67.98,19.22,28.66-.03,52.81-10.47,68.02-19.24,9.42-5.34,18.21-11.71,26.21-19.01L198.38,1.57H1.62l4.14,123.8Z"/>
  <path id="Trazado_6" data-name="Trazado 6" class="cls-16" d="M100.13,154.47h-.26c-13.66,0-34.89-2.87-58.43-16.54-8.17-4.63-15.75-10.22-22.6-16.64l-1.25-1.25L14.26,10.72h171.47l-3.33,109.32-1.25,1.25c-6.85,6.42-14.44,12.01-22.6,16.64-12.99,7.55-33.67,16.54-58.43,16.54ZM26.37,116.16c6.19,5.58,34.88,29.43,73.5,29.43h.26c38.61,0,67.31-23.84,73.5-29.43l2.94-96.55H23.43l2.94,96.55Z"/>
  <g>
    <path class="cls-12" d="M100,39.93v-18.59l-3.44,6.56s1.03.58,1.11,1.72c.1,1.38-.44,2.22-1.53,2.36-.78.11-1.68-.4-1.87-1.35-.34-1.75.46-2.73.46-2.73l-3.55-5.54-2.28,6.32s1.04.5,1.42,1.15c.45.79.05,2-.53,2.37-.89.56-2.09.08-2.41-.57-.49-1.01.31-2.66.31-2.66l-4.24-4.22,2.94,15.17h13.62Z"/>
    <path class="cls-12" d="M112.32,28.98s.8,1.65.31,2.66c-.32.65-1.53,1.13-2.41.57-.58-.37-.99-1.58-.53-2.37.37-.66,1.42-1.15,1.42-1.15l-2.28-6.32-3.55,5.54s.81.98.46,2.73c-.19.95-1.09,1.46-1.87,1.35-1.08-.15-1.62-.98-1.53-2.36.08-1.14,1.11-1.72,1.11-1.72l-3.44-6.56v18.59h13.62l2.94-15.17-4.24,4.22Z"/>
    <rect class="cls-12" x="86.29" y="41.13" width="27.23" height="2.14"/>
  </g>
  <g id="Grupo_1" data-name="Grupo 1">
    <path id="Trazado_2" data-name="Trazado 2" class="cls-11" d="M66.15,37.38c1.05-3.14,1.57-7.84,3.14-10.45-3.14,2.09-7.32,5.75-8.36,7.84-1.05,1.77-1.05,3.98,0,5.75,1.05,1.57,4.18,0,5.23-3.14Z"/>
    <path id="Trazado_3" data-name="Trazado 3" class="cls-11" d="M70.33,39.99c-4.7.52-6.27,3.14-6.27,4.18s2.09,3.14,5.23,2.62,6.27-3.66,12.02-3.66c-1.57-1.05-6.28-3.66-10.98-3.14Z"/>
    <path id="Trazado_4" data-name="Trazado 4" class="cls-11" d="M109.03,140.3c-5.41-5.03-12.69-7.5-19.72-9.9-.95-.32-1.87-.64-2.79-.96-2.38-1.15-4.41-2.93-5.87-5.14.05-.05.09-.1.13-.15,2.03-3.41,1.38-7.79-1.57-10.45-4.18-4.18-7.84-5.75-9.93-11.5,0,4.18-1.05,15.16,3.66,20.39,1.7,1.93,4.3,2.79,6.81,2.26.72,1.17,1.63,2.22,2.68,3.1-.28-.11-.56-.22-.84-.33-5.84-2.4-13.57-5.84-19.55-10.03-1.12-1.62-1.78-3.51-1.91-5.48-.03-.18-.06-.36-.08-.54,2.59-.38,3.48-2.89,3.48-6.74,0-4.18-2.09-8.36-1.57-15.16-2.62,2.62-6.8,7.32-6.8,13.07s.97,8.63,3.83,8.86c.03.22.07.44.1.67.15,1.29.44,2.56.88,3.79-.94-.74-1.84-1.53-2.69-2.37-2.98-2.86-5.66-6.03-7.97-9.46-.67-2.26-.89-4.62-.64-6.96,1.91.33,4.01-1.33,4.93-4.98,1.05-4.18.52-8.36,3.14-13.07-2.62,2.09-8.89,6.8-9.93,9.41-1.01,2.54-1.04,7.03.87,8.25-.18,1.51-.18,3.04,0,4.55-2.74-5.21-4.04-11.07-3.75-16.95.04-1.28.12-2.53.22-3.76.4-1.08.87-2.13,1.41-3.15,1.76,1.86,5.52-.53,6.99-2,1.57-1.57,4.7-7.32,8.89-10.98-5.23,1.05-10.45,1.57-13.07,4.18-1.39,1.29-2.51,2.84-3.29,4.56.58-3.36,1.47-6.66,2.64-9.86,1.12-1,2.29-1.93,3.52-2.79,1.82,1.55,6.66-.9,9.14-2.88,2.62-2.09,3.66-4.7,7.32-5.75-4.18-1.05-10.45,0-13.07,1.57-2.38,1.43-4.75,4.15-3.97,6.21-.73.49-1.44,1.01-2.11,1.57,1.68-4.05,4.11-7.74,7.16-10.88,5.28-5.28,9.83-9.83,16.5-12.91.1-.05.19-.12.26-.2,1.27.65,4.17.76,6.73-.52,3.14-1.57,4.18-3.14,6.53-7.58-3.14,1.57-9.93,2.09-12.02,3.14-1.39.68-2.2,2.15-2.04,3.69-.04.01-.08.02-.12.04-6.92,3.2-11.79,8.07-16.95,13.23-3.1,3.19-5.59,6.92-7.33,11.01.08-1.28-.03-2.57-.33-3.81,1.08-1.09,2.92-3.22,1.42-8.21-.52-1.57-3.14-4.18-5.23-7.32,0,4.18-.52,10.98,0,13.59.41,2.06,1.8,2.82,2.88,2.53.37,2.25.28,4.56-.25,6.77-.01.08,0,.17.02.25-1.57,4.72-2.6,9.61-3.05,14.56-.25-.57-.5-1.06-.73-1.49.03-.05.07-.1.1-.15,1.05-2.09,0-5.23-2.09-7.84s-5.75-5.75-9.41-5.75c1.57,1.57,3.66,10.45,5.23,12.55,1.26,1.68,3.86,2.68,5.38,1.93.58,1.08,1.02,2.22,1.31,3.41-.07.98-.12,1.98-.15,2.99-.26,6.15,1.1,12.25,3.94,17.71-.59-.54-1.22-1.05-1.87-1.52.03-3.37-1.39-6.59-3.9-8.84-3.66-3.14-6.8-3.14-10.45-5.23,3.14,3.66,4.75,9.9,6.27,12.02,2.6,3.63,7.25,4.17,7.83,3.16,1.44,1.15,2.8,2.4,4.07,3.73,2.31,3.39,4.97,6.52,7.93,9.35.82.81,1.67,1.57,2.57,2.29-1.01-.16-2.04-.21-3.07-.15,0-.03,0-.05,0-.08,0-2.62-2.62-5.75-6.8-6.27s-9.93.52-15.16.52c6.27,2.62,11.5,7.32,15.16,8.36,3.06.88,5.75.28,6.55-1.47,1.8-.13,3.62.08,5.34.62,3.96,2.73,8.16,5.11,12.54,7.1-.77.02-1.52.08-2.23.17-1.19-1.2-3.6-1.71-6.52-1.71-3.66,0-9.41,2.62-15.68,3.14,5.23,2.62,9.41,5.23,14.11,5.23s8.89-2.09,8.89-4.7c0-.33-.05-.65-.17-.96,1.4-.16,2.81-.14,4.21.04,1.78.79,3.49,1.52,5.07,2.17,2.48,1.02,5.06,1.9,7.79,2.83,6.88,2.34,13.98,4.76,19.16,9.57.31.3.81.3,1.11-.01.3-.31.3-.81-.01-1.11,0,0-.02-.02-.03-.03h.01ZM44.72,75.54c.03.34.11.67.24.98-.17.25-.33.52-.48.8.07-.6.15-1.2.24-1.79h0Z"/>
  </g>
  <g id="Grupo_7" data-name="Grupo 7">
    <g class="cls-15">
      <g id="Grupo_6" data-name="Grupo 6">
        <path id="Trazado_7" data-name="Trazado 7" class="cls-2" d="M99.87,109.77c0-5.75,15.42-8.89,20.12-8.89s7.32-3.66,7.32-7.84v-39.21c.08-2.85,1.68-5.44,4.18-6.8h-62.99c2.51,1.36,4.1,3.95,4.18,6.8v39.21c0,4.18,2.62,7.84,7.32,7.84s19.86,3.14,19.86,8.89Z"/>
        <g id="Grupo_3" data-name="Grupo 3">
          <g class="cls-9">
            <g id="Grupo_2" data-name="Grupo 2">
              <rect id="Rectángulo_1" data-name="Rectángulo 1" class="cls-8" x="72.69" y="75.53" width="3.66" height="32.93"/>
              <rect id="Rectángulo_2" data-name="Rectángulo 2" class="cls-8" x="79.74" y="75.53" width="3.66" height="32.93"/>
              <rect id="Rectángulo_3" data-name="Rectángulo 3" class="cls-8" x="87.59" y="75.53" width="3.66" height="32.93"/>
              <rect id="Rectángulo_4" data-name="Rectángulo 4" class="cls-8" x="94.9" y="75.53" width="3.66" height="32.93"/>
            </g>
          </g>
        </g>
        <g id="Grupo_5" data-name="Grupo 5">
          <g class="cls-10">
            <g id="Grupo_4" data-name="Grupo 4">
              <rect id="Rectángulo_6" data-name="Rectángulo 6" class="cls-8" x="99.35" y="45.3" width="3.68" height="32.94"/>
              <rect id="Rectángulo_7" data-name="Rectángulo 7" class="cls-8" x="106.44" y="45.3" width="3.68" height="32.94"/>
              <rect id="Rectángulo_8" data-name="Rectángulo 8" class="cls-8" x="114.33" y="45.3" width="3.68" height="32.94"/>
              <rect id="Rectángulo_9" data-name="Rectángulo 9" class="cls-8" x="121.69" y="45.3" width="3.68" height="32.94"/>
            </g>
          </g>
        </g>
        <rect id="Rectángulo_11" data-name="Rectángulo 11" class="cls-14" x="70.33" y="45.22" width="29.27" height="31.36"/>
        <g id="S" class="cls-4">
          <text class="cls-6" transform="translate(77.65 71.81)"><tspan x="0" y="0">S</tspan></text>
        </g>
        <rect id="Rectángulo_12" data-name="Rectángulo 12" class="cls-14" x="99.61" y="76.58" width="29.27" height="31.36"/>
        <g id="B" class="cls-4">
          <text class="cls-3" transform="translate(102.74 97.99)"><tspan x="0" y="0">B</tspan></text>
        </g>
      </g>
    </g>
  </g>
  <path id="Trazado_9" data-name="Trazado 9" class="cls-2" d="M99.87,109.77c0-5.75,15.42-8.89,20.12-8.89s7.32-3.66,7.32-7.84v-39.21c.08-2.85,1.68-5.44,4.18-6.8h-62.99c2.51,1.36,4.1,3.95,4.18,6.8v39.21c0,4.18,2.62,7.84,7.32,7.84s19.86,3.14,19.86,8.89Z"/>
  <g id="Grupo_8" data-name="Grupo 8">
    <path id="Trazado_10" data-name="Trazado 10" class="cls-11" d="M133.32,37.38c-1.05-3.14-1.57-7.84-3.14-10.45,3.14,2.09,7.32,5.75,8.36,7.84,1.05,1.77,1.05,3.98,0,5.75-1.05,1.57-4.18,0-5.23-3.14Z"/>
    <path id="Trazado_11" data-name="Trazado 11" class="cls-11" d="M129.14,39.99c4.7.52,6.27,3.14,6.27,4.18s-2.09,3.14-5.23,2.62-6.27-3.66-12.02-3.66c1.57-1.05,6.28-3.66,10.98-3.14Z"/>
    <path id="Trazado_12" data-name="Trazado 12" class="cls-11" d="M90.41,141.41c.29.32.79.33,1.11.04,5.17-4.8,12.27-7.22,19.16-9.57,2.73-.93,5.31-1.81,7.79-2.83,1.57-.65,3.29-1.37,5.07-2.17,1.4-.19,2.81-.2,4.21-.04-.11.31-.17.63-.17.96,0,2.62,4.18,4.7,8.89,4.7s8.89-2.62,14.11-5.23c-6.27-.52-12.02-3.14-15.68-3.14-2.92,0-5.33.51-6.52,1.71-.7-.08-1.46-.15-2.23-.17,4.38-1.99,8.57-4.37,12.54-7.1,1.73-.54,3.54-.75,5.34-.62.8,1.75,3.49,2.34,6.55,1.47,3.66-1.05,8.89-5.75,15.16-8.36-5.23,0-10.98-1.05-15.16-.52s-6.8,3.66-6.8,6.27c0,.03,0,.06,0,.08-1.02-.06-2.05,0-3.07.15.9-.72,1.75-1.48,2.57-2.29,2.97-2.83,5.63-5.96,7.93-9.35,1.27-1.33,2.63-2.58,4.07-3.73.58,1.02,5.23.48,7.83-3.16,1.52-2.13,3.14-8.36,6.27-12.02-3.66,2.09-6.8,2.09-10.45,5.23-2.51,2.25-3.93,5.47-3.9,8.84-.65.47-1.28.97-1.87,1.52,2.84-5.45,4.2-11.56,3.94-17.71-.03-1.01-.09-2.01-.15-2.99.29-1.19.73-2.34,1.31-3.41,1.52.75,4.13-.25,5.38-1.93,1.57-2.09,3.66-10.98,5.23-12.55-3.66,0-7.32,3.14-9.41,5.75s-3.14,5.75-2.09,7.84c.03.06.06.1.1.15-.23.43-.48.92-.73,1.49-.46-4.95-1.48-9.83-3.06-14.55.03-.08.03-.17.02-.25-.54-2.22-.62-4.52-.25-6.77,1.08.28,2.46-.47,2.88-2.53.52-2.62,0-9.41,0-13.59-2.09,3.14-4.7,5.75-5.23,7.32-1.5,4.99.34,7.12,1.42,8.21-.3,1.25-.41,2.53-.33,3.81-1.74-4.09-4.23-7.82-7.33-11.01-5.16-5.16-10.03-10.03-16.95-13.23-.04-.02-.08-.03-.12-.04.16-1.54-.65-3.01-2.04-3.69-2.09-1.05-8.89-1.57-12.02-3.14,2.35,4.44,3.4,6.01,6.53,7.58,2.56,1.28,5.46,1.17,6.73.52.07.08.16.15.26.2,6.67,3.08,11.23,7.63,16.5,12.91,3.05,3.14,5.48,6.84,7.16,10.88-.68-.56-1.38-1.08-2.11-1.57.78-2.05-1.59-4.78-3.97-6.21-2.62-1.57-8.89-2.62-13.07-1.57,3.66,1.05,4.7,3.66,7.32,5.75,2.48,1.99,7.32,4.44,9.14,2.88,1.23.86,2.4,1.79,3.52,2.79,1.18,3.2,2.06,6.5,2.65,9.86-.78-1.72-1.9-3.27-3.29-4.56-2.62-2.62-7.84-3.14-13.07-4.18,4.18,3.66,7.32,9.41,8.89,10.98,1.47,1.47,5.23,3.86,6.99,2,.54,1.02,1.01,2.07,1.41,3.15.1,1.23.18,2.48.22,3.76.29,5.88-1.01,11.74-3.75,16.95.18-1.51.18-3.04,0-4.55,1.91-1.22,1.88-5.71.87-8.25-1.05-2.62-7.32-7.32-9.93-9.41,2.62,4.7,2.09,8.89,3.14,13.07.91,3.65,3.02,5.31,4.93,4.98.25,2.34.03,4.71-.65,6.96-2.32,3.43-4.99,6.6-7.97,9.46-.85.84-1.75,1.63-2.69,2.37.44-1.22.73-2.49.88-3.79.03-.23.07-.45.1-.67,2.86-.23,3.83-3.34,3.83-8.86s-4.18-10.45-6.8-13.07c.52,6.8-1.57,10.98-1.57,15.16,0,3.85.89,6.37,3.48,6.74-.03.18-.06.37-.08.54-.13,1.97-.79,3.86-1.91,5.48-5.98,4.19-13.71,7.63-19.55,10.03-.28.11-.56.22-.84.33,1.05-.88,1.96-1.93,2.68-3.1,2.51.53,5.12-.33,6.81-2.26,4.7-5.23,3.66-16.2,3.66-20.39-2.09,5.75-5.75,7.32-9.93,11.5-2.95,2.67-3.6,7.04-1.57,10.45.04.05.09.11.13.15-1.46,2.21-3.49,3.99-5.87,5.14-.91.32-1.84.64-2.79.96-7.03,2.4-14.3,4.87-19.72,9.9-.31.3-.32.8-.02,1.11h0ZM154.99,77.34c-.15-.29-.31-.56-.48-.8.13-.32.21-.65.24-.98.09.59.17,1.19.24,1.79Z"/>
  </g>
  <g>
    <path id="Trazado_13" data-name="Trazado 13" class="cls-13" d="M78.7,111.65s-7.84,0-12.02-1.61c2.26,1.86,4.72,3.47,7.32,4.82-1.68.85-3.43,1.57-5.23,2.14,3.14,1.07,9.93,1.07,13.59.54v-4.82l-3.66-1.07Z"/>
    <path id="Trazado_14" data-name="Trazado 14" class="cls-13" d="M121.3,111.65s7.84,0,12.02-1.61c-2.26,1.86-4.72,3.47-7.32,4.82,1.68.85,3.43,1.57,5.23,2.14-3.14,1.07-9.93,1.07-13.59.54v-4.82l3.66-1.07Z"/>
    <path id="Trazado_15" data-name="Trazado 15" class="cls-13" d="M99.87,114.22h21.43v-5.75h-42.6v5.75h21.17Z"/>
    <g id="_25_ENERO_1944" data-name=" 25 ENERO 1944" class="cls-4">
      <text class="cls-5" transform="translate(81.26 112.58)"><tspan x="0" y="0">25 ENERO 1944</tspan></text>
    </g>
  </g>
</svg>