<?xml version="1.0" encoding="UTF-8"?>
<svg id="Capa_1" data-name="Capa 1" xmlns="http://www.w3.org/2000/svg" xmlns:xlink="http://www.w3.org/1999/xlink" viewBox="0 0 1571.77 319.23">
  <defs>
    <style>
      .cls-1, .cls-2 {
        fill: none;
      }

      .cls-3 {
        fill: #008bd0;
      }

      .cls-4 {
        font-size: 58.33px;
        letter-spacing: .02em;
      }

      .cls-4, .cls-5, .cls-6, .cls-7 {
        isolation: isolate;
      }

      .cls-4, .cls-6, .cls-7 {
        font-family: Times-Bold, Times;
        font-weight: 700;
      }

      .cls-4, .cls-8, .cls-7, .cls-9 {
        fill: #fff;
      }

      .cls-6 {
        fill: #161615;
        font-size: 9.72px;
        letter-spacing: .03em;
      }

      .cls-10 {
        clip-path: url(#clippath-1);
      }

      .cls-11 {
        clip-path: url(#clippath-2);
      }

      .cls-12 {
        fill: #367925;
      }

      .cls-7 {
        font-size: 64.17px;
        letter-spacing: .02em;
      }

      .cls-13 {
        fill: #c89b40;
      }

      .cls-14 {
        fill: #dedede;
        stroke: #aba9aa;
      }

      .cls-14, .cls-2 {
        stroke-miterlimit: 10;
      }

      .cls-2 {
        stroke: #040405;
        stroke-width: 3px;
      }

      .cls-15 {
        fill: #c30013;
      }

      .cls-16 {
        letter-spacing: -.02em;
      }

      .cls-17 {
        letter-spacing: -.02em;
      }

      .cls-18 {
        letter-spacing: -.02em;
      }

      .cls-19 {
        letter-spacing: -.01em;
      }

      .cls-9 {
        font-family: SofiaSans-Black, 'Sofia Sans';
        font-size: 118.12px;
        font-weight: 800;
      }

      .cls-20 {
        letter-spacing: 0em;
      }

      .cls-21 {
        letter-spacing: .02em;
      }

      .cls-22 {
        clip-path: url(#clippath);
      }

      .cls-23 {
        fill: #008dd1;
      }
    </style>
    <clipPath id="clippath">
      <path class="cls-1" d="M193.01,212.15c0-11.11,29.8-17.17,38.89-17.17s14.14-7.07,14.14-15.15v-75.77c.16-5.51,3.24-10.51,8.08-13.13h-121.73c4.84,2.62,7.92,7.63,8.08,13.13v75.77c0,8.08,5.06,15.15,14.14,15.15s38.39,6.06,38.39,17.17Z"/>
    </clipPath>
    <clipPath id="clippath-1">
      <rect class="cls-1" x="137.95" y="148" width="54.55" height="63.64"/>
    </clipPath>
    <clipPath id="clippath-2">
      <rect class="cls-1" x="192.5" y="89.41" width="54.87" height="58.59"/>
    </clipPath>
  </defs>
  <path class="cls-8" d="M193.51,319.23h-.51c-55.95-.12-103.04-20.49-132.72-37.58-18.62-10.51-35.97-23.14-51.7-37.61l-.43-.42L0,0h386.52l-8.15,243.61-.43.42c-15.74,14.48-33.08,27.1-51.7,37.61-29.68,17.09-76.76,37.46-132.72,37.58h0Z"/>
  <path id="Trazado_5" data-name="Trazado 5" class="cls-23" d="M193.51,319.23h-.51c-55.95-.12-103.04-20.49-132.72-37.58-18.62-10.51-35.97-23.14-51.7-37.61l-.43-.42L0,0h386.52l-8.15,243.61-.43.42c-15.74,14.48-33.08,27.1-51.7,37.61-29.68,17.09-76.76,37.46-132.72,37.58h0ZM11.14,242.3c15.49,14.11,32.51,26.45,50.75,36.78,29.39,16.92,76.03,37.07,131.38,37.14,55.39-.06,102.05-20.24,131.46-37.18,18.2-10.32,35.19-22.64,50.66-36.73L383.39,3.04H3.13l8.01,239.26Z"/>
  <path id="Trazado_6" data-name="Trazado 6" class="cls-23" d="M193.51,298.52h-.51c-26.4,0-67.42-5.55-112.91-31.97-15.78-8.96-30.45-19.75-43.68-32.16l-2.41-2.41L27.57,20.71h331.38l-6.43,211.27-2.41,2.41c-13.24,12.41-27.9,23.21-43.68,32.16-25.11,14.58-65.08,31.97-112.91,31.97ZM50.95,224.48c11.96,10.79,67.41,56.87,142.05,56.87h.51c74.63,0,130.08-46.07,142.05-56.87l5.68-186.59H45.27l5.68,186.59Z"/>
  <g>
    <path class="cls-13" d="M193.25,77.17v-35.93l-6.65,12.69s1.98,1.13,2.14,3.33c.19,2.66-.86,4.28-2.95,4.57-1.51.21-3.25-.78-3.62-2.61-.67-3.38.89-5.27.89-5.27l-6.86-10.71-4.41,12.22s2.02.96,2.74,2.23c.87,1.53.09,3.87-1.03,4.58-1.71,1.08-4.05.16-4.66-1.1-.95-1.95.59-5.14.59-5.14l-8.2-8.16,5.69,29.32h26.31Z"/>
    <path class="cls-13" d="M217.06,56.01s1.54,3.19.59,5.14c-.61,1.26-2.95,2.19-4.66,1.1-1.12-.71-1.9-3.05-1.03-4.58.72-1.27,2.74-2.23,2.74-2.23l-4.41-12.22-6.86,10.71s1.56,1.89.89,5.27c-.36,1.84-2.11,2.82-3.62,2.61-2.09-.29-3.14-1.9-2.95-4.57.16-2.2,2.14-3.33,2.14-3.33l-6.65-12.69v35.93h26.31l5.69-29.32-8.2,8.16Z"/>
    <rect class="cls-13" x="166.76" y="79.48" width="52.62" height="4.13"/>
  </g>
  <g id="Grupo_1" data-name="Grupo 1">
    <path id="Trazado_2" data-name="Trazado 2" class="cls-12" d="M127.85,72.23c2.02-6.06,3.03-15.15,6.06-20.2-6.06,4.04-14.14,11.11-16.16,15.15-2.03,3.43-2.03,7.69,0,11.11,2.02,3.03,8.08,0,10.1-6.06Z"/>
    <path id="Trazado_3" data-name="Trazado 3" class="cls-12" d="M135.93,77.28c-9.09,1.01-12.12,6.06-12.12,8.08s4.04,6.06,10.11,5.06,12.12-7.07,23.24-7.07c-3.04-2.02-12.13-7.07-21.22-6.06Z"/>
    <path id="Trazado_4" data-name="Trazado 4" class="cls-12" d="M210.7,271.14c-10.46-9.72-24.52-14.5-38.11-19.13-1.83-.63-3.62-1.24-5.39-1.85-4.6-2.23-8.52-5.66-11.34-9.93.09-.09.18-.19.26-.3,3.93-6.6,2.66-15.05-3.03-20.2-8.08-8.08-15.15-11.11-19.2-22.22,0,8.08-2.02,29.3,7.07,39.4,3.28,3.72,8.31,5.39,13.17,4.36,1.4,2.26,3.15,4.28,5.19,5.99-.54-.21-1.09-.42-1.62-.64-11.29-4.65-26.23-11.28-37.79-19.39-2.17-3.13-3.45-6.79-3.69-10.59-.05-.35-.11-.7-.16-1.05,5-.73,6.73-5.59,6.73-13.03,0-8.08-4.04-16.16-3.03-29.3-5.06,5.06-13.13,14.14-13.13,25.26s1.88,16.68,7.4,17.13c.07.42.13.85.19,1.29.29,2.5.85,4.95,1.7,7.32-1.82-1.43-3.55-2.96-5.2-4.58-5.77-5.53-10.93-11.66-15.41-18.28-1.3-4.36-1.72-8.93-1.25-13.46,3.69.63,7.76-2.57,9.53-9.62,2.02-8.08,1.01-16.16,6.06-25.26-5.06,4.04-17.17,13.13-19.2,18.18-1.96,4.9-2.01,13.58,1.68,15.94-.35,2.92-.35,5.87,0,8.79-5.3-10.08-7.8-21.39-7.24-32.76.09-2.48.24-4.89.42-7.27.77-2.09,1.68-4.12,2.72-6.09,3.4,3.6,10.68-1.02,13.52-3.86,3.03-3.03,9.09-14.14,17.17-21.22-10.11,2.02-20.2,3.03-25.26,8.08-2.68,2.49-4.84,5.48-6.36,8.81,1.12-6.49,2.83-12.87,5.11-19.06,2.16-1.93,4.43-3.73,6.81-5.4,3.52,3,12.87-1.73,17.67-5.57,5.06-4.04,7.07-9.09,14.14-11.11-8.08-2.02-20.2,0-25.26,3.03-4.6,2.76-9.18,8.03-7.67,12-1.41.94-2.78,1.95-4.08,3.03,3.24-7.82,7.93-14.96,13.84-21.03,10.2-10.2,19-19,31.89-24.95.19-.09.37-.22.5-.39,2.45,1.26,8.06,1.48,13-1,6.06-3.03,8.08-6.06,12.63-14.65-6.06,3.03-19.2,4.04-23.24,6.06-2.68,1.32-4.25,4.16-3.94,7.13-.08.02-.16.05-.23.08-13.38,6.18-22.79,15.59-32.77,25.56-6,6.16-10.8,13.37-14.17,21.28.16-2.47-.05-4.96-.63-7.37,2.09-2.11,5.64-6.22,2.74-15.87-1.01-3.03-6.06-8.08-10.11-14.14,0,8.08-1.01,21.22,0,26.27.8,3.98,3.47,5.44,5.56,4.9.71,4.35.55,8.8-.49,13.09-.03.16-.02.33.04.49-3.04,9.12-5.02,18.56-5.9,28.14-.48-1.11-.97-2.05-1.41-2.89.06-.1.13-.18.18-.29,2.02-4.04,0-10.11-4.04-15.15s-11.11-11.11-18.18-11.11c3.03,3.03,7.07,20.2,10.11,24.24,2.43,3.24,7.46,5.18,10.4,3.73,1.12,2.08,1.97,4.3,2.53,6.6-.13,1.9-.23,3.83-.3,5.79-.51,11.88,2.12,23.68,7.61,34.22-1.14-1.05-2.35-2.03-3.61-2.93.06-6.51-2.68-12.74-7.53-17.09-7.07-6.06-13.13-6.06-20.2-10.11,6.06,7.07,9.19,19.13,12.12,23.24,5.02,7.02,14.01,8.07,15.12,6.1,2.78,2.22,5.41,4.63,7.87,7.21,4.46,6.55,9.6,12.61,15.33,18.07,1.58,1.56,3.23,3.04,4.97,4.43-1.96-.3-3.95-.4-5.93-.29,0-.06.01-.1.01-.16,0-5.06-5.06-11.11-13.13-12.12s-19.2,1.01-29.3,1.01c12.12,5.06,22.22,14.14,29.3,16.16,5.92,1.69,11.11.54,12.66-2.83,3.49-.26,6.99.15,10.33,1.2,7.66,5.28,15.76,9.87,24.23,13.72-1.48.04-2.93.16-4.3.32-2.29-2.32-6.95-3.31-12.6-3.31-7.07,0-18.18,5.06-30.31,6.06,10.11,5.06,18.18,10.11,27.28,10.11s17.17-4.04,17.17-9.09c0-.63-.1-1.26-.32-1.85,2.7-.3,5.44-.28,8.13.08,3.44,1.53,6.75,2.93,9.79,4.19,4.8,1.98,9.78,3.67,15.06,5.47,13.29,4.53,27.03,9.21,37.02,18.49.6.58,1.56.57,2.14-.03.58-.6.57-1.56-.03-2.14-.02-.02-.04-.03-.05-.05l.02-.02ZM86.43,145.99c.07.65.22,1.29.46,1.9-.32.48-.63,1-.93,1.56.14-1.17.3-2.32.46-3.46h0Z"/>
  </g>
  <g id="Grupo_7" data-name="Grupo 7">
    <g class="cls-22">
      <g id="Grupo_6" data-name="Grupo 6">
        <path id="Trazado_7" data-name="Trazado 7" class="cls-2" d="M193.01,212.15c0-11.11,29.8-17.17,38.89-17.17s14.14-7.07,14.14-15.15v-75.77c.16-5.51,3.24-10.51,8.08-13.13h-121.73c4.84,2.62,7.92,7.63,8.08,13.13v75.77c0,8.08,5.06,15.15,14.14,15.15s38.39,6.06,38.39,17.17Z"/>
        <g id="Grupo_3" data-name="Grupo 3">
          <g class="cls-10">
            <g id="Grupo_2" data-name="Grupo 2">
              <rect id="Rectángulo_1" data-name="Rectángulo 1" class="cls-3" x="140.47" y="145.98" width="7.07" height="63.64"/>
              <rect id="Rectángulo_2" data-name="Rectángulo 2" class="cls-3" x="154.11" y="145.98" width="7.07" height="63.64"/>
              <rect id="Rectángulo_3" data-name="Rectángulo 3" class="cls-3" x="169.27" y="145.98" width="7.07" height="63.64"/>
              <rect id="Rectángulo_4" data-name="Rectángulo 4" class="cls-3" x="183.41" y="145.98" width="7.07" height="63.64"/>
            </g>
          </g>
        </g>
        <g id="Grupo_5" data-name="Grupo 5">
          <g class="cls-11">
            <g id="Grupo_4" data-name="Grupo 4">
              <rect id="Rectángulo_6" data-name="Rectángulo 6" class="cls-3" x="191.99" y="87.54" width="7.11" height="63.66"/>
              <rect id="Rectángulo_7" data-name="Rectángulo 7" class="cls-3" x="205.71" y="87.54" width="7.11" height="63.66"/>
              <rect id="Rectángulo_8" data-name="Rectángulo 8" class="cls-3" x="220.96" y="87.54" width="7.11" height="63.66"/>
              <rect id="Rectángulo_9" data-name="Rectángulo 9" class="cls-3" x="235.18" y="87.54" width="7.11" height="63.66"/>
            </g>
          </g>
        </g>
        <rect id="Rectángulo_11" data-name="Rectángulo 11" class="cls-15" x="135.93" y="87.39" width="56.57" height="60.61"/>
        <g id="S" class="cls-5">
          <text class="cls-7" transform="translate(150.07 138.78)"><tspan x="0" y="0">S</tspan></text>
        </g>
        <rect id="Rectángulo_12" data-name="Rectángulo 12" class="cls-15" x="192.5" y="148" width="56.57" height="60.61"/>
        <g id="B" class="cls-5">
          <text class="cls-4" transform="translate(198.56 189.37)"><tspan x="0" y="0">B</tspan></text>
        </g>
      </g>
    </g>
  </g>
  <path id="Trazado_9" data-name="Trazado 9" class="cls-2" d="M193.01,212.15c0-11.11,29.8-17.17,38.89-17.17s14.14-7.07,14.14-15.15v-75.77c.16-5.51,3.24-10.51,8.08-13.13h-121.73c4.84,2.62,7.92,7.63,8.08,13.13v75.77c0,8.08,5.06,15.15,14.14,15.15s38.39,6.06,38.39,17.17Z"/>
  <g id="Grupo_8" data-name="Grupo 8">
    <path id="Trazado_10" data-name="Trazado 10" class="cls-12" d="M257.66,72.23c-2.02-6.06-3.03-15.15-6.06-20.2,6.06,4.04,14.14,11.11,16.16,15.15,2.03,3.43,2.03,7.69,0,11.11-2.02,3.03-8.08,0-10.1-6.06Z"/>
    <path id="Trazado_11" data-name="Trazado 11" class="cls-12" d="M249.58,77.28c9.09,1.01,12.12,6.06,12.12,8.08s-4.04,6.06-10.11,5.06-12.12-7.07-23.24-7.07c3.04-2.02,12.13-7.07,21.22-6.06Z"/>
    <path id="Trazado_12" data-name="Trazado 12" class="cls-12" d="M174.72,273.29c.57.61,1.53.65,2.14.08,9.99-9.28,23.72-13.96,37.02-18.49,5.27-1.8,10.25-3.5,15.06-5.47,3.04-1.25,6.36-2.66,9.79-4.19,2.7-.36,5.43-.38,8.13-.08-.21.59-.32,1.22-.32,1.85,0,5.06,8.08,9.09,17.17,9.09s17.17-5.06,27.28-10.11c-12.12-1.01-23.24-6.06-30.31-6.06-5.64,0-10.31.99-12.6,3.31-1.36-.16-2.83-.28-4.3-.32,8.46-3.85,16.57-8.44,24.23-13.72,3.34-1.05,6.84-1.46,10.33-1.2,1.54,3.38,6.74,4.52,12.66,2.83,7.07-2.02,17.17-11.11,29.3-16.16-10.11,0-21.22-2.02-29.3-1.01-8.08,1.01-13.13,7.07-13.13,12.12,0,.06.01.11.01.16-1.98-.11-3.97-.02-5.93.29,1.73-1.39,3.39-2.87,4.97-4.43,5.74-5.46,10.88-11.52,15.33-18.07,2.46-2.58,5.09-4.99,7.87-7.21,1.11,1.97,10.11.93,15.12-6.1,2.94-4.11,6.06-16.16,12.12-23.24-7.07,4.04-13.13,4.04-20.2,10.11-4.85,4.35-7.6,10.57-7.53,17.09-1.26.9-2.47,1.88-3.61,2.93,5.5-10.54,8.12-22.34,7.61-34.22-.07-1.96-.17-3.89-.3-5.79.56-2.3,1.41-4.51,2.53-6.6,2.94,1.45,7.97-.48,10.4-3.73,3.03-4.04,7.07-21.22,10.11-24.24-7.07,0-14.14,6.06-18.18,11.11s-6.06,11.11-4.04,15.15c.05.11.12.19.19.29-.45.83-.94,1.78-1.41,2.89-.88-9.57-2.87-19.01-5.91-28.12.05-.16.06-.32.04-.49-1.04-4.29-1.21-8.74-.49-13.09,2.09.54,4.76-.92,5.56-4.9,1.01-5.06,0-18.18,0-26.27-4.04,6.06-9.09,11.11-10.11,14.14-2.89,9.64.65,13.75,2.74,15.87-.58,2.41-.79,4.89-.63,7.37-3.37-7.91-8.17-15.12-14.17-21.28-9.97-9.97-19.39-19.39-32.76-25.56-.08-.03-.15-.06-.23-.08.31-2.97-1.26-5.82-3.94-7.13-4.04-2.02-17.17-3.03-23.24-6.06,4.55,8.59,6.57,11.62,12.63,14.65,4.94,2.47,10.55,2.26,13,1,.14.16.31.3.5.39,12.89,5.95,21.69,14.75,31.89,24.95,5.9,6.07,10.6,13.21,13.84,21.03-1.31-1.08-2.67-2.09-4.08-3.03,1.5-3.97-3.07-9.24-7.67-12-5.06-3.03-17.17-5.06-25.26-3.03,7.07,2.02,9.09,7.07,14.14,11.11,4.8,3.84,14.15,8.58,17.67,5.57,2.37,1.66,4.65,3.46,6.81,5.4,2.28,6.18,3.99,12.56,5.11,19.06-1.52-3.33-3.68-6.32-6.36-8.81-5.06-5.06-15.15-6.06-25.26-8.08,8.08,7.07,14.14,18.18,17.17,21.22,2.84,2.84,10.11,7.46,13.52,3.86,1.05,1.97,1.95,4,2.72,6.09.19,2.38.34,4.79.42,7.27.56,11.37-1.95,22.69-7.24,32.76.35-2.92.35-5.87,0-8.79,3.69-2.36,3.64-11.04,1.68-15.94-2.02-5.06-14.14-14.14-19.2-18.18,5.06,9.09,4.04,17.17,6.06,25.26,1.76,7.05,5.83,10.25,9.53,9.62.47,4.52.05,9.1-1.25,13.46-4.47,6.62-9.64,12.75-15.41,18.28-1.64,1.63-3.38,3.16-5.2,4.58.84-2.37,1.41-4.82,1.7-7.32.07-.44.13-.87.19-1.29,5.53-.45,7.4-6.45,7.4-17.13s-8.08-20.2-13.13-25.26c1.01,13.13-3.03,21.22-3.03,29.3,0,7.44,1.72,12.3,6.73,13.03-.05.35-.11.71-.16,1.05-.25,3.8-1.53,7.46-3.69,10.59-11.56,8.11-26.5,14.74-37.79,19.39-.53.22-1.08.43-1.62.64,2.04-1.71,3.79-3.73,5.19-5.99,4.85,1.03,9.89-.64,13.17-4.36,9.09-10.11,7.07-31.32,7.07-39.4-4.04,11.11-11.11,14.14-19.2,22.22-5.69,5.15-6.96,13.61-3.03,20.2.08.1.17.2.26.3-2.82,4.27-6.74,7.7-11.34,9.93-1.77.61-3.55,1.23-5.39,1.85-13.59,4.63-27.65,9.42-38.11,19.13-.6.58-.63,1.54-.05,2.14h0ZM299.54,149.46c-.3-.56-.61-1.08-.93-1.56.24-.61.4-1.25.46-1.9.17,1.14.32,2.29.46,3.46Z"/>
  </g>
  <text class="cls-9" transform="translate(429.36 189.37)"><tspan x="0" y="0">SPO</tspan><tspan class="cls-16" x="214.5" y="0">R</tspan><tspan x="285.6" y="0">TI</tspan><tspan class="cls-18" x="384.82" y="0">V</tspan><tspan x="457.58" y="0">O </tspan><tspan class="cls-20" x="558.8" y="0">B</tspan><tspan x="630.14" y="0">AR</tspan><tspan class="cls-21" x="777.2" y="0">R</tspan><tspan class="cls-17" x="853.5" y="0">A</tspan><tspan class="cls-19" x="924.84" y="0">C</tspan><tspan x="1000.91" y="0">AS</tspan></text>
  <g>
    <path id="Trazado_13" data-name="Trazado 13" class="cls-14" d="M152.09,215.76s-15.15,0-23.24-3.11c4.38,3.59,9.12,6.71,14.14,9.31-3.26,1.65-6.64,3.03-10.11,4.14,6.06,2.07,19.2,2.07,26.27,1.03v-9.31l-7.06-2.06Z"/>
    <path id="Trazado_14" data-name="Trazado 14" class="cls-14" d="M234.42,215.76s15.15,0,23.24-3.11c-4.38,3.59-9.12,6.71-14.14,9.31,3.26,1.65,6.64,3.03,10.11,4.14-6.06,2.07-19.2,2.07-26.27,1.03v-9.31l7.06-2.06Z"/>
    <path id="Trazado_15" data-name="Trazado 15" class="cls-14" d="M193,220.74h41.42v-11.11h-82.33v11.11h40.91Z"/>
    <g id="_25_ENERO_1944" data-name=" 25 ENERO 1944" class="cls-5">
      <text class="cls-6" transform="translate(157.04 217.57)"><tspan x="0" y="0">25 ENERO 1944</tspan></text>
    </g>
  </g>
</svg>